<svg width="40" height="40" viewBox="0 0 40 40" fill="none" xmlns="http://www.w3.org/2000/svg">
<path d="M31.6667 11.6667C31.6667 9.83333 30.1667 8.33333 28.3333 8.33333H25C24.0833 8.33333 23.3333 9.08333 23.3333 10C23.3333 10.9167 24.0833 11.6667 25 11.6667H28.3333V16.0833L22.5333 23.3333H16.6667V16.6667C16.6667 15.75 15.9167 15 15 15H10C6.31667 15 3.33334 17.9833 3.33334 21.6667V25C3.33334 25.9167 4.08334 26.6667 5 26.6667H6.66667C6.66667 29.4333 8.9 31.6667 11.6667 31.6667C14.4333 31.6667 16.6667 29.4333 16.6667 26.6667H22.5333C23.55 26.6667 24.5 26.2 25.1333 25.4167L30.9333 18.1667C31.4167 17.5667 31.6667 16.8333 31.6667 16.0833V11.6667ZM11.6667 28.3333C10.75 28.3333 10 27.5833 10 26.6667H13.3333C13.3333 27.5833 12.5833 28.3333 11.6667 28.3333Z" fill="#434343"/>
<path d="M10 10H15C15.9167 10 16.6667 10.75 16.6667 11.6667C16.6667 12.5833 15.9167 13.3333 15 13.3333H10C9.08334 13.3333 8.33334 12.5833 8.33334 11.6667C8.33334 10.75 9.08334 10 10 10ZM31.6667 21.6667C28.9 21.6667 26.6667 23.9 26.6667 26.6667C26.6667 29.4333 28.9 31.6667 31.6667 31.6667C34.4333 31.6667 36.6667 29.4333 36.6667 26.6667C36.6667 23.9 34.4333 21.6667 31.6667 21.6667ZM31.6667 28.3333C30.75 28.3333 30 27.5833 30 26.6667C30 25.75 30.75 25 31.6667 25C32.5833 25 33.3333 25.75 33.3333 26.6667C33.3333 27.5833 32.5833 28.3333 31.6667 28.3333Z" fill="#434343"/>
</svg>
