<svg width="40" height="40" viewBox="0 0 40 40" fill="none" xmlns="http://www.w3.org/2000/svg">
<path d="M28.1363 15.8613L20.6363 11.4238C20.4436 11.3096 20.2238 11.2495 19.9998 11.2497C19.7759 11.2499 19.5562 11.3105 19.3638 11.425L11.8638 15.8625C11.6768 15.9728 11.5218 16.13 11.4141 16.3185C11.3065 16.507 11.2499 16.7204 11.25 16.9375V25.5625C11.25 26.005 11.4838 26.4137 11.8638 26.6375L19.3638 31.075C19.5559 31.1904 19.7759 31.2513 20 31.2513C20.2241 31.2513 20.4441 31.1904 20.6363 31.075L28.1363 26.6375C28.3232 26.5272 28.4782 26.37 28.5859 26.1815C28.6935 25.993 28.7501 25.7796 28.75 25.5625V16.9375C28.7501 16.7202 28.6935 16.5067 28.5858 16.318C28.4782 16.1293 28.3233 15.9718 28.1363 15.8613ZM26.25 24.85L20 28.5475L13.75 24.85V17.65L20 13.9525L26.25 17.65V24.85Z" fill="#434343"/>
<path d="M7.5 25.23V13.8375L15.25 9.2575L13.9787 7.105L5.61375 12.0487C5.42674 12.1593 5.27178 12.3168 5.16415 12.5055C5.05653 12.6942 4.99995 12.9077 5 13.125V25.23C4.27096 25.487 3.6393 25.9633 3.1917 26.5935C2.7441 27.2237 2.50248 27.977 2.5 28.75C2.5 30.8175 4.1825 32.5 6.25 32.5C8.3175 32.5 10 30.8175 10 28.75C9.99752 27.977 9.75591 27.2237 9.3083 26.5935C8.8607 25.9633 8.22904 25.487 7.5 25.23ZM6.25 30C5.92815 29.9856 5.62426 29.8476 5.4016 29.6148C5.17893 29.3819 5.05467 29.0722 5.05467 28.75C5.05467 28.4278 5.17893 28.1181 5.4016 27.8852C5.62426 27.6524 5.92815 27.5144 6.25 27.5C6.57185 27.5144 6.87574 27.6524 7.0984 27.8852C7.32107 28.1181 7.44533 28.4278 7.44533 28.75C7.44533 29.0722 7.32107 29.3819 7.0984 29.6148C6.87574 29.8476 6.57185 29.9856 6.25 30ZM33.75 25C31.6825 25 30 26.6825 30 28.75C30 29.1912 30.09 29.6087 30.2312 30.0025L20 36.0475L11.995 31.3175L10.7238 33.47L19.3638 38.575C19.5562 38.6895 19.7759 38.7501 19.9998 38.7503C20.2238 38.7505 20.4436 38.6904 20.6363 38.5762L31.8363 31.9575C32.3988 32.2937 33.0487 32.5 33.75 32.5C35.8175 32.5 37.5 30.8175 37.5 28.75C37.5 26.6825 35.8175 25 33.75 25ZM33.75 30C33.4282 29.9856 33.1243 29.8476 32.9016 29.6148C32.6789 29.3819 32.5547 29.0722 32.5547 28.75C32.5547 28.4278 32.6789 28.1181 32.9016 27.8852C33.1243 27.6524 33.4282 27.5144 33.75 27.5C34.0718 27.5144 34.3757 27.6524 34.5984 27.8852C34.8211 28.1181 34.9453 28.4278 34.9453 28.75C34.9453 29.0722 34.8211 29.3819 34.5984 29.6148C34.3757 29.8476 34.0718 29.9856 33.75 30ZM20 8.75C20.9137 8.75 21.74 8.40875 22.3913 7.865L32.5 13.8387V22.5H35V13.125C35 12.9077 34.9435 12.6942 34.8358 12.5055C34.7282 12.3168 34.5733 12.1593 34.3863 12.0487L23.6775 5.72125C23.7225 5.4875 23.75 5.2475 23.75 5C23.75 2.9325 22.0675 1.25 20 1.25C17.9325 1.25 16.25 2.9325 16.25 5C16.25 7.0675 17.9325 8.75 20 8.75ZM20 3.75C20.2476 3.74975 20.4897 3.82296 20.6956 3.96035C20.9016 4.09775 21.0622 4.29315 21.157 4.52184C21.2519 4.75053 21.2768 5.00221 21.2285 5.24505C21.1803 5.48788 21.0611 5.71095 20.886 5.88602C20.711 6.06108 20.4879 6.18028 20.245 6.22852C20.0022 6.27676 19.7505 6.25187 19.5218 6.15701C19.2932 6.06215 19.0977 5.90159 18.9604 5.69563C18.823 5.48967 18.7498 5.24758 18.75 5C18.75 4.31 19.3113 3.75 20 3.75Z" fill="#434343"/>
</svg>
