<svg width="40" height="40" viewBox="0 0 40 40" fill="none" xmlns="http://www.w3.org/2000/svg">
<path d="M31.4167 15.6667L24.3333 8.58333L26.7083 6.20833C27.3472 5.56945 28.1322 5.25 29.0633 5.25C29.9933 5.25 30.7778 5.56945 31.4167 6.20833L33.7917 8.58333C34.4305 9.22222 34.75 10.0067 34.75 10.9367C34.75 11.8678 34.4305 12.6528 33.7917 13.2917L31.4167 15.6667ZM4.99999 35V27.9167L12.5 20.4167L3.70833 11.5417L11.5833 3.66667L20.4167 12.5417L22 10.9583L29.0833 18L27.5 19.5833L36.2917 28.4583L28.4583 36.2917L19.5833 27.4583L12.0833 35H4.99999ZM14.875 18.0417L18.0417 14.875L16.0417 12.875L14.0417 14.8333L11.7083 12.5L13.6667 10.5L11.5417 8.41667L8.41666 11.5833L14.875 18.0417ZM28.4167 31.5833L31.5833 28.4167L29.4583 26.3333L27.5 28.2917L25.125 25.9583L27.125 23.9583L25.0833 21.9583L21.9167 25.125L28.4167 31.5833Z" fill="#434343"/>
</svg>
