<svg width="66" height="30" viewBox="0 0 66 30" fill="none" xmlns="http://www.w3.org/2000/svg">
<path d="M1.51706 23V5.54544H5.2074V19.9574H12.6904V23H1.51706Z" fill="#333333"/>
<path d="M20.9808 23.2557C19.657 23.2557 18.5121 22.9744 17.5462 22.4119C16.586 21.8437 15.8445 21.054 15.3217 20.0426C14.799 19.0256 14.5377 17.8466 14.5377 16.5057C14.5377 15.1534 14.799 13.9716 15.3217 12.9602C15.8445 11.9432 16.586 11.1534 17.5462 10.5909C18.5121 10.0227 19.657 9.73862 20.9808 9.73862C22.3047 9.73862 23.4467 10.0227 24.407 10.5909C25.3729 11.1534 26.1172 11.9432 26.6399 12.9602C27.1627 13.9716 27.424 15.1534 27.424 16.5057C27.424 17.8466 27.1627 19.0256 26.6399 20.0426C26.1172 21.054 25.3729 21.8437 24.407 22.4119C23.4467 22.9744 22.3047 23.2557 20.9808 23.2557ZM20.9979 20.4432C21.6002 20.4432 22.103 20.2727 22.5064 19.9318C22.9098 19.5852 23.2138 19.1136 23.4183 18.517C23.6286 17.9204 23.7337 17.2415 23.7337 16.4801C23.7337 15.7187 23.6286 15.0398 23.4183 14.4432C23.2138 13.8466 22.9098 13.375 22.5064 13.0284C22.103 12.6818 21.6002 12.5085 20.9979 12.5085C20.3899 12.5085 19.8786 12.6818 19.4638 13.0284C19.0547 13.375 18.745 13.8466 18.5348 14.4432C18.3303 15.0398 18.228 15.7187 18.228 16.4801C18.228 17.2415 18.3303 17.9204 18.5348 18.517C18.745 19.1136 19.0547 19.5852 19.4638 19.9318C19.8786 20.2727 20.3899 20.4432 20.9979 20.4432Z" fill="#333333"/>
<path d="M35.6825 28.1818C34.5064 28.1818 33.4979 28.0199 32.657 27.696C31.8217 27.3778 31.157 26.9432 30.6627 26.392C30.1683 25.8409 29.8473 25.2216 29.6996 24.5341L33.0575 24.0824C33.1598 24.3437 33.3217 24.5881 33.5433 24.8153C33.7649 25.0426 34.0575 25.2244 34.4212 25.3608C34.7905 25.5028 35.2394 25.5739 35.7678 25.5739C36.5575 25.5739 37.2081 25.3807 37.7195 24.9943C38.2365 24.6136 38.495 23.9744 38.495 23.0767V20.6818H38.3416C38.1825 21.0454 37.9439 21.3892 37.6257 21.7131C37.3075 22.0369 36.8985 22.3011 36.3985 22.5057C35.8985 22.7102 35.3019 22.8125 34.6087 22.8125C33.6257 22.8125 32.7308 22.5852 31.924 22.1307C31.1229 21.6704 30.4837 20.9687 30.0064 20.0256C29.5348 19.0767 29.299 17.8778 29.299 16.429C29.299 14.946 29.5405 13.7074 30.0235 12.7131C30.5064 11.7187 31.1485 10.9744 31.9496 10.4801C32.7564 9.98578 33.6399 9.73862 34.6002 9.73862C35.3331 9.73862 35.9467 9.86362 36.4411 10.1136C36.9354 10.3579 37.3331 10.6648 37.6342 11.0341C37.9411 11.3977 38.1769 11.7557 38.3416 12.1079H38.478V9.90908H42.0831V23.1278C42.0831 24.2415 41.8104 25.1733 41.2649 25.9233C40.7195 26.6733 39.9638 27.2358 38.9979 27.6108C38.0377 27.9915 36.9325 28.1818 35.6825 28.1818ZM35.7592 20.0852C36.3445 20.0852 36.8388 19.9403 37.2422 19.6506C37.6513 19.3551 37.9638 18.9346 38.1797 18.3892C38.4013 17.8381 38.5121 17.179 38.5121 16.4119C38.5121 15.6449 38.4041 14.9801 38.1882 14.4176C37.9723 13.8494 37.6598 13.4091 37.2507 13.0966C36.8416 12.7841 36.3445 12.6278 35.7592 12.6278C35.1627 12.6278 34.6598 12.7898 34.2507 13.1136C33.8416 13.4318 33.532 13.875 33.3217 14.4432C33.1115 15.0114 33.0064 15.6676 33.0064 16.4119C33.0064 17.1676 33.1115 17.821 33.3217 18.3721C33.5377 18.9176 33.8473 19.3409 34.2507 19.642C34.6598 19.9375 35.1627 20.0852 35.7592 20.0852Z" fill="#333333"/>
<path d="M50.8871 23.2557C49.5632 23.2557 48.4183 22.9744 47.4524 22.4119C46.4922 21.8437 45.7507 21.054 45.228 20.0426C44.7053 19.0256 44.4439 17.8466 44.4439 16.5057C44.4439 15.1534 44.7053 13.9716 45.228 12.9602C45.7507 11.9432 46.4922 11.1534 47.4524 10.5909C48.4183 10.0227 49.5632 9.73862 50.8871 9.73862C52.211 9.73862 53.353 10.0227 54.3132 10.5909C55.2791 11.1534 56.0234 11.9432 56.5462 12.9602C57.0689 13.9716 57.3303 15.1534 57.3303 16.5057C57.3303 17.8466 57.0689 19.0256 56.5462 20.0426C56.0234 21.054 55.2791 21.8437 54.3132 22.4119C53.353 22.9744 52.211 23.2557 50.8871 23.2557ZM50.9041 20.4432C51.5064 20.4432 52.0092 20.2727 52.4127 19.9318C52.8161 19.5852 53.12 19.1136 53.3246 18.517C53.5348 17.9204 53.6399 17.2415 53.6399 16.4801C53.6399 15.7187 53.5348 15.0398 53.3246 14.4432C53.12 13.8466 52.8161 13.375 52.4127 13.0284C52.0092 12.6818 51.5064 12.5085 50.9041 12.5085C50.2962 12.5085 49.7848 12.6818 49.37 13.0284C48.9609 13.375 48.6513 13.8466 48.4411 14.4432C48.2365 15.0398 48.1342 15.7187 48.1342 16.4801C48.1342 17.2415 48.2365 17.9204 48.4411 18.517C48.6513 19.1136 48.9609 19.5852 49.37 19.9318C49.7848 20.2727 50.2962 20.4432 50.9041 20.4432Z" fill="#333333"/>
<circle cx="62" cy="26" r="4" fill="#295DE3"/>
</svg>
